<?xml version="1.0" standalone="no"?>
<!DOCTYPE svg PUBLIC "-//W3C//DTD SVG 20010904//EN"
 "http://www.w3.org/TR/2001/REC-SVG-20010904/DTD/svg10.dtd">
<svg version="1.0" xmlns="http://www.w3.org/2000/svg"
 width="233.000000pt" height="216.000000pt" viewBox="0 0 233.000000 216.000000"
 preserveAspectRatio="xMidYMid meet">
<metadata>
Created by potrace 1.10, written by Peter Selinger 2001-2011
</metadata>
<g transform="translate(0.000000,216.000000) scale(0.100000,-0.100000)"
fill="#000000" stroke="none">
<path d="M988 2120 c-265 -46 -517 -230 -648 -474 -49 -92 -90 -229 -100 -336
-35 -372 134 -699 460 -890 38 -22 71 -40 73 -40 3 0 21 -7 42 -16 28 -11 35
-18 26 -27 -15 -15 -14 -70 1 -85 7 -7 8 -12 2 -12 -17 0 -60 50 -43 50 8 1 0
9 -17 18 -18 9 -56 35 -85 57 -76 57 -124 74 -185 64 -27 -4 -147 -8 -266 -8
-138 -1 -218 -5 -218 -11 0 -6 75 -10 205 -10 l205 0 -12 -25 c-8 -19 -8 -35
0 -64 10 -31 9 -44 -3 -67 -22 -42 -18 -78 11 -114 l27 -31 -127 2 c-69 0
-126 -3 -126 -7 0 -13 340 -14 373 -2 45 17 59 55 31 83 -27 26 -8 29 53 8
104 -36 129 -43 159 -43 16 0 35 -4 42 -8 20 -13 133 7 172 31 55 33 88 77 58
77 -6 0 -4 6 6 13 16 12 14 13 -16 9 -26 -3 -42 2 -65 22 -36 31 -64 33 -86 8
-25 -27 -18 -60 7 -35 13 14 41 12 60 -5 12 -11 16 -12 11 -3 -5 9 -4 12 2 8
17 -11 10 -61 -10 -65 -21 -4 -77 19 -71 29 2 4 -11 12 -29 18 -37 13 -46 38
-13 37 16 -1 21 5 21 27 -1 31 -2 31 85 12 111 -23 305 -12 413 25 25 8 27 7
27 -21 0 -16 -4 -29 -10 -29 -5 0 -10 5 -10 10 0 21 -65 10 -89 -16 -19 -20
-32 -25 -58 -22 -28 3 -33 1 -33 -17 0 -22 39 -64 76 -83 56 -29 103 -31 254
-7 14 2 65 18 113 35 90 33 112 34 83 5 -9 -9 -16 -23 -16 -30 0 -17 36 -53
62 -61 10 -3 18 -8 18 -12 0 -4 35 -8 79 -10 62 -2 88 2 122 18 24 11 35 18
24 14 -11 -3 -63 -8 -115 -10 -77 -3 -88 -2 -60 7 20 5 49 21 65 33 32 26 32
23 21 189 l-5 67 180 0 c113 0 179 4 179 10 0 6 -68 10 -183 10 -154 0 -186 3
-206 17 -50 35 -193 11 -246 -40 -6 -7 -27 -23 -45 -37 -18 -14 -47 -40 -64
-59 -17 -18 -41 -44 -53 -58 -26 -28 -30 -18 -8 23 21 41 19 70 -7 88 -21 15
-21 16 -2 21 46 15 73 30 150 80 259 169 411 455 408 770 -4 429 -298 791
-720 889 -68 15 -281 19 -356 6z m251 -31 c-9 -5 -2 -8 21 -8 19 0 51 -2 70
-5 19 -2 41 -5 48 -5 7 -1 10 -6 6 -13 -5 -7 -2 -9 7 -6 8 3 23 0 33 -7 10 -8
24 -11 31 -9 13 5 114 -46 148 -75 16 -14 17 -13 11 5 -5 11 7 4 29 -19 21
-21 37 -35 37 -30 0 4 5 0 11 -10 6 -9 15 -14 21 -11 7 5 8 2 4 -5 -5 -8 0
-14 13 -18 11 -3 18 -9 15 -14 -5 -8 9 -13 29 -10 4 0 6 -2 5 -7 -4 -11 38
-62 51 -62 6 0 8 -7 4 -16 -4 -10 1 -17 16 -21 11 -3 19 -9 16 -13 -2 -4 3
-16 13 -26 19 -22 57 -95 54 -106 -1 -5 2 -8 7 -8 5 0 11 -9 14 -20 3 -11 6
-24 7 -28 1 -4 6 -15 11 -24 5 -9 15 -46 22 -81 11 -52 11 -64 1 -64 -7 0 -11
4 -8 8 2 4 0 10 -5 14 -6 3 -7 13 -4 22 5 12 3 14 -7 8 -8 -5 -11 -4 -6 3 3 6
-2 16 -13 21 -12 7 -21 27 -27 58 -4 26 -8 50 -9 53 -9 29 -27 60 -48 83 -15
15 -23 27 -19 27 4 0 -1 5 -10 11 -10 5 -18 15 -18 20 0 6 4 7 10 4 6 -3 7 1
4 9 -3 9 -10 13 -15 10 -5 -3 -6 3 -2 12 4 12 3 15 -6 10 -6 -4 -11 -4 -10 1
4 21 -2 32 -15 27 -8 -3 -16 3 -19 16 -4 14 -10 19 -18 14 -8 -4 -10 -3 -5 4
4 8 -3 16 -19 22 -14 5 -24 14 -20 19 8 13 -32 34 -48 25 -6 -4 -9 -4 -5 1 8
8 -27 38 -49 41 -6 1 -28 14 -47 29 -20 15 -36 24 -36 20 0 -3 -7 1 -16 10
-26 26 -64 48 -71 42 -3 -3 -11 0 -19 7 -11 12 -20 12 -51 1 -32 -11 -39 -11
-41 0 -2 8 -12 17 -23 20 -11 4 -16 11 -12 18 4 7 -1 6 -10 -2 -10 -7 -17 -9
-17 -3 0 6 -11 9 -24 8 -14 -2 -30 1 -38 5 -11 7 -11 9 0 9 7 0 11 3 9 8 -3 4
6 8 20 9 18 1 22 -1 12 -8z m-70 -15 c-7 -9 -20 -12 -32 -8 -13 4 -17 2 -13
-5 4 -6 2 -9 -6 -6 -11 4 -44 8 -111 14 -5 1 -6 5 -3 9 3 5 44 9 91 9 74 1 84
-1 74 -13z m-181 -10 c-4 -3 -12 -6 -20 -8 -22 -3 -39 -17 -33 -27 4 -5 -6 -9
-21 -9 -34 0 -125 -40 -118 -51 3 -5 -2 -6 -11 -3 -9 4 -23 0 -33 -9 -9 -8
-27 -18 -39 -21 -13 -4 -23 -12 -23 -17 0 -6 -7 -3 -16 5 -8 9 -20 13 -26 10
-7 -4 -8 -2 -4 4 4 7 13 12 20 12 8 0 19 7 26 15 7 8 21 15 32 15 12 0 17 4
12 12 -4 6 -3 8 3 5 6 -4 29 2 51 13 23 11 46 20 52 20 5 0 10 5 10 10 0 6 9
10 20 10 11 0 20 3 20 8 0 4 18 7 40 6 23 0 43 3 46 8 4 5 9 7 12 4 3 -3 3 -9
0 -12z m187 -59 c-2 -46 -18 -46 -20 0 -1 21 3 35 10 35 6 0 11 -14 10 -35z
m32 14 c-4 -17 -3 -19 6 -10 6 6 16 11 21 11 6 0 5 -5 -2 -12 -7 -7 -8 -17 -1
-30 11 -21 0 -24 -20 -5 -11 10 -13 10 -7 0 4 -7 2 -13 -3 -13 -6 0 -11 18
-11 40 0 23 5 40 11 40 7 0 9 -9 6 -21z m-167 -1 c0 -6 3 -8 7 -5 3 4 12 2 20
-4 15 -13 18 -49 3 -49 -5 0 -10 9 -10 20 0 11 -5 20 -11 20 -7 0 -9 -10 -5
-25 4 -14 2 -25 -4 -25 -5 0 -10 4 -10 9 0 5 -3 23 -6 40 -4 20 -3 31 5 31 6
0 11 -5 11 -12z m251 -7 c15 -13 18 -25 13 -45 -3 -14 -11 -23 -16 -20 -5 4
-8 15 -5 25 3 11 1 19 -4 19 -5 0 -9 -9 -9 -20 0 -11 -4 -20 -10 -20 -11 0
-13 39 -4 64 8 20 11 20 35 -3z m-291 -2 c0 -6 -7 -9 -15 -6 -8 4 -17 2 -20
-3 -4 -6 6 -10 20 -10 22 0 26 -4 23 -22 -2 -17 -10 -23 -28 -23 -15 0 -25 6
-25 15 0 8 -4 21 -9 29 -5 8 -3 16 5 22 20 12 49 11 49 -2z m140 -20 c0 -26
-3 -30 -22 -27 -17 2 -23 10 -25 31 -1 23 2 27 23 27 20 0 24 -5 24 -31z m262
4 c0 -10 0 -28 -1 -40 -3 -33 14 -28 29 7 12 28 21 34 22 13 1 -4 7 -13 15
-18 11 -8 12 -17 4 -38 -6 -16 -15 -25 -21 -22 -7 4 -7 13 0 26 14 24 -5 26
-19 2 -9 -17 -12 -16 -40 4 -18 14 -32 19 -36 13 -4 -6 -11 -8 -16 -5 -9 6 40
75 54 75 4 0 8 -8 9 -17z m-493 -39 c6 -15 10 -29 7 -31 -8 -8 -26 7 -26 23 0
8 -5 14 -10 14 -7 0 -7 -7 0 -21 7 -11 9 -23 6 -26 -8 -8 -26 7 -26 23 0 8 -4
14 -10 14 -6 0 -6 -9 0 -25 6 -16 6 -25 0 -25 -10 0 -34 49 -27 56 5 5 52 23
63 23 6 1 16 -11 23 -25z m-91 -31 c13 -26 4 -43 -23 -43 -27 0 -40 26 -24 46
16 19 37 17 47 -3z m715 -5 c27 -13 32 -24 21 -52 -10 -27 -25 -18 -19 12 6
27 6 27 -7 4 -16 -27 -32 -18 -17 9 12 24 0 25 -17 2 -17 -25 -28 -10 -12 16
15 25 16 25 51 9z m-420 -35 c-10 -21 -18 -39 -19 -41 -1 -2 -35 1 -75 7 l-74
10 -85 -42 c-105 -51 -228 -168 -283 -267 -61 -111 -82 -197 -82 -335 0 -127
17 -198 71 -306 70 -140 212 -264 374 -325 70 -26 86 -28 220 -29 127 0 153 3
210 23 205 73 357 227 427 431 20 59 27 102 31 194 2 64 1 117 -4 117 -5 0 -8
-37 -6 -82 12 -320 -211 -601 -529 -669 -84 -17 -249 -7 -329 21 -149 52 -265
139 -343 258 -107 162 -140 343 -96 529 l12 52 56 -4 c47 -4 51 -3 26 5 -16 6
-38 8 -47 6 -30 -7 -30 11 2 71 17 32 29 51 26 42 -3 -12 2 -16 18 -16 16 0
22 5 22 21 -1 16 5 21 22 20 12 0 22 3 22 8 0 14 -50 8 -56 -7 -6 -16 -24 -21
-24 -7 0 21 116 145 173 186 36 25 68 46 72 46 5 0 -13 -21 -39 -47 -146 -148
-177 -363 -81 -560 29 -58 111 -149 165 -181 40 -25 39 -25 161 65 48 34 90
63 93 63 4 0 54 -33 111 -74 l105 -74 -48 -17 c-26 -9 -86 -19 -133 -22 -71
-5 -99 -2 -159 16 -40 12 -74 20 -76 18 -9 -9 94 -41 151 -46 236 -23 441 111
517 337 21 63 25 193 8 252 -11 37 -5 70 11 70 6 0 7 6 3 13 -5 6 9 -5 29 -27
20 -21 34 -42 31 -47 -3 -5 -1 -9 5 -9 23 0 16 18 -25 64 l-43 50 -10 -27 c-6
-15 -13 -27 -16 -27 -4 0 -3 5 0 10 3 6 2 10 -2 10 -5 0 -17 19 -27 41 -10 23
-47 70 -81 105 -34 35 -60 64 -56 64 25 0 129 -76 191 -139 85 -85 132 -165
167 -281 12 -41 22 -66 22 -54 1 29 -30 117 -67 190 -60 120 -165 222 -290
284 -69 34 -127 51 -139 40 -4 -4 -33 -11 -63 -14 l-55 -6 -22 40 -21 40 23 0
c45 0 175 -29 232 -52 229 -93 401 -322 433 -577 52 -408 -304 -793 -719 -777
-297 11 -564 212 -651 491 -40 129 -37 336 7 444 71 176 176 299 326 385 77
44 207 82 289 85 l28 1 -17 -37z m-354 -1 c11 -20 -2 -42 -25 -42 -18 0 -35
26 -28 44 8 22 41 20 53 -2z m-68 -19 c7 -16 15 -31 17 -35 2 -5 0 -8 -5 -8
-8 0 -43 52 -43 64 0 16 18 3 31 -21z m-86 7 c3 -6 -1 -7 -9 -4 -28 11 -17
-10 20 -39 40 -32 54 -30 30 5 -30 42 -13 54 17 12 22 -29 14 -64 -13 -64 -11
0 -31 15 -46 34 -26 32 -27 33 -45 15 -11 -11 -19 -23 -19 -28 0 -4 -11 -16
-24 -27 -14 -10 -23 -21 -20 -26 3 -4 1 -8 -5 -8 -6 0 -13 -11 -17 -25 -3 -14
-14 -31 -23 -38 -10 -6 -20 -20 -24 -30 -4 -11 -12 -15 -18 -11 -7 4 -10 3 -6
-2 3 -5 -1 -17 -8 -27 -12 -16 -13 -16 -19 5 -4 15 0 27 10 35 9 6 13 16 9 22
-3 6 1 11 9 11 14 0 20 13 19 47 0 6 6 9 13 6 9 -3 14 1 14 12 0 9 4 14 9 11
4 -3 17 4 27 16 13 14 14 19 4 13 -8 -4 9 15 38 44 53 52 66 59 77 41z m572
-47 c5 -21 9 -22 46 -16 43 7 44 0 6 -42 -18 -20 -18 -21 6 -49 14 -16 25 -31
25 -34 0 -2 -19 -1 -43 2 l-44 7 -13 -43 -13 -43 -21 43 c-20 42 -22 44 -58
38 -21 -4 -38 -3 -38 0 0 3 12 20 26 36 l25 31 -32 33 -32 33 50 -6 51 -6 12
38 c12 36 13 37 27 19 8 -10 16 -29 20 -41z m448 46 c4 -5 -1 -19 -11 -30 -13
-14 -20 -16 -31 -8 -7 6 -13 17 -13 24 0 22 44 33 55 14z m-628 -173 l-40 -59
39 7 c22 4 50 9 64 12 23 4 29 -2 53 -51 15 -30 27 -57 27 -59 0 -2 -26 9 -57
25 -32 16 -86 39 -119 52 l-62 24 -50 -139 c-42 -117 -47 -140 -34 -147 37
-21 69 18 40 47 -18 18 50 225 72 216 8 -3 42 -15 75 -27 33 -11 55 -22 48
-24 -6 -2 -37 5 -69 16 -33 11 -60 19 -61 18 -1 -1 -4 -16 -8 -32 l-6 -30 13
26 c12 24 15 25 42 14 22 -9 25 -13 12 -18 -9 -4 -15 -14 -15 -24 1 -17 2 -17
6 0 2 9 8 17 13 17 5 0 7 -6 4 -14 -3 -7 2 -16 10 -19 11 -4 13 -1 9 10 -6 15
-5 15 16 1 13 -9 30 -14 38 -11 7 3 13 2 12 -3 -3 -18 1 -25 11 -19 8 5 7 11
-1 21 -17 21 -6 26 19 8 12 -8 23 -25 23 -37 1 -18 2 -19 6 -4 3 10 -3 27 -13
38 -9 10 -12 19 -7 19 6 0 15 -6 21 -12 10 -13 25 -268 16 -268 -3 0 -20 11
-38 25 -20 15 -39 22 -53 19 -11 -3 -24 0 -28 7 -6 9 -2 11 13 7 12 -4 20 -2
16 3 -9 15 9 10 44 -11 17 -11 32 -16 32 -12 0 15 -67 41 -91 36 l-24 -5 25
14 c17 11 30 12 42 6 11 -6 18 -6 18 0 0 14 -52 24 -60 11 -4 -6 -14 -8 -23
-5 -8 4 -24 2 -35 -4 -15 -8 -22 -8 -25 2 -4 8 -8 8 -14 2 -4 -5 -14 -10 -20
-11 -34 -3 -36 -5 -19 -17 17 -12 17 -14 2 -20 -9 -4 -16 -2 -16 3 0 6 -3 9
-7 9 -21 -3 -33 2 -27 13 4 7 3 8 -4 4 -6 -4 -25 0 -43 9 -17 9 -33 14 -37 11
-8 -8 -10 -7 118 -72 63 -32 117 -61 120 -65 3 -3 15 -9 27 -13 13 -4 22 -10
22 -14 -3 -19 2 -26 10 -14 7 12 14 11 39 -2 40 -21 44 -21 108 10 l55 26 19
-23 c11 -12 20 -27 20 -33 0 -6 -4 -4 -10 4 -5 8 -12 11 -16 7 -4 -4 -12 1
-19 10 -9 12 -16 13 -31 5 -12 -7 -14 -12 -5 -12 9 0 12 -8 9 -25 -4 -20 -3
-23 8 -14 10 8 11 16 3 30 -6 13 -6 19 1 19 5 0 10 -4 10 -10 0 -11 32 -30 61
-35 10 -2 34 -15 52 -29 32 -25 47 -25 47 -2 0 6 -17 22 -38 36 -20 13 -51 36
-69 49 l-31 25 136 63 c76 34 142 64 147 66 6 3 7 7 3 11 -3 4 -26 -2 -50 -14
-23 -11 -34 -14 -24 -6 18 15 17 20 -32 158 -34 98 -54 142 -64 139 -91 -24
-174 -52 -202 -69 -41 -24 -42 -23 -18 36 l17 44 68 -6 c37 -3 67 -3 67 1 0 5
-18 28 -39 53 l-39 44 40 53 c44 57 52 61 85 38 12 -8 27 -13 35 -12 7 2 11 2
8 0 -3 -2 24 -34 60 -71 96 -98 139 -200 140 -324 0 -160 -76 -309 -206 -398
-46 -33 -59 -37 -51 -17 2 6 -13 26 -34 42 -30 24 -38 37 -39 63 0 36 -25 45
-35 13 -4 -13 -12 -18 -22 -14 -11 4 -14 3 -9 -6 4 -6 -13 3 -39 21 -27 19
-49 29 -53 23 -11 -16 -154 -117 -158 -112 -5 5 33 49 40 47 4 -1 10 0 14 3 4
2 1 2 -7 0 -10 -3 -12 5 -8 31 5 29 3 34 -10 29 -9 -4 -14 -2 -10 3 3 6 -4 11
-16 11 -18 2 -19 0 -7 -8 12 -9 12 -10 1 -7 -23 7 -24 26 -2 33 12 3 21 10 21
15 0 5 7 7 15 4 8 -4 15 -10 15 -16 0 -5 -5 -6 -12 -2 -7 4 -8 3 -4 -4 4 -7
17 -12 28 -12 20 0 19 2 -6 25 l-27 25 -52 -35 c-29 -19 -52 -41 -52 -48 0 -6
-7 -12 -15 -13 -45 -3 -45 -3 -28 -20 15 -15 19 -14 51 10 20 15 47 26 65 26
28 0 32 -3 30 -26 -2 -16 -17 -39 -41 -59 -25 -21 -36 -38 -31 -46 14 -23 -82
50 -118 89 -171 189 -167 465 9 653 23 25 39 50 35 54 -4 5 -2 5 5 2 6 -4 31
4 55 18 l43 25 41 -47 42 -48 -41 -59z m663 132 c0 -9 3 -8 10 2 5 8 12 11 16
8 9 -10 -36 -70 -49 -65 -22 7 -31 35 -18 51 16 19 41 21 41 4z m-1056 -100
c-7 -10 -63 44 -57 55 3 5 18 -4 34 -19 15 -15 26 -31 23 -36z m1132 47 c-3
-9 0 -15 8 -15 7 0 19 -6 25 -14 9 -11 6 -12 -14 -8 -22 4 -25 1 -25 -22 0
-30 7 -32 34 -11 37 28 41 14 6 -16 -27 -23 -36 -26 -38 -14 -2 8 -8 15 -14
15 -6 0 -8 11 -6 25 5 25 -5 34 -17 15 -4 -6 -11 -8 -17 -4 -5 4 2 18 18 35
30 31 50 38 40 14z m-1162 -78 c-7 -19 -29 -23 -39 -7 -3 6 -10 10 -16 10 -14
0 -11 -22 8 -42 21 -24 -3 -25 -29 -1 -17 15 -17 17 -1 35 15 17 15 20 3 28
-8 6 -10 10 -5 10 6 0 21 -7 33 -16 13 -9 26 -13 30 -9 4 3 -1 11 -11 16 -9 6
-15 15 -11 21 10 16 46 -25 38 -45z m1207 -40 c-11 -12 -24 -18 -27 -14 -9 9
28 46 40 40 4 -3 -1 -15 -13 -26z m-1274 -20 c19 -11 20 -14 8 -31 -15 -20
-47 -15 -41 6 1 7 1 10 -1 5 -3 -4 -9 -4 -14 -1 -6 3 -5 11 2 20 14 17 18 17
46 1z m1320 -3 c4 -10 -1 -22 -10 -29 -23 -17 -21 -28 2 -15 11 5 27 10 37 10
13 0 14 -3 4 -15 -7 -8 -16 -12 -21 -10 -4 3 -12 -3 -18 -12 -5 -10 -11 -16
-13 -13 -15 23 -38 70 -38 78 0 9 16 17 43 21 4 0 10 -6 14 -15z m-398 -104
c18 -55 29 -105 25 -112 -4 -7 -9 -23 -10 -36 -2 -19 1 -23 17 -19 10 3 19 1
19 -4 0 -5 -5 -9 -11 -9 -6 0 -9 -7 -5 -15 3 -8 2 -14 -2 -13 -4 1 -21 -6 -39
-15 -23 -12 -34 -14 -39 -5 -5 7 -3 8 6 3 8 -5 11 -4 7 2 -4 6 2 13 13 16 11
3 20 11 20 17 0 10 -3 10 -14 1 -11 -9 -16 -9 -22 0 -5 8 -3 9 6 4 9 -5 11 -4
6 3 -12 19 -28 14 -21 -7 4 -13 0 -23 -12 -30 -10 -6 -12 -11 -5 -11 26 0 10
-16 -41 -38 -28 -12 -56 -23 -62 -24 -5 -1 -30 -12 -53 -25 -24 -14 -46 -22
-50 -19 -3 3 0 6 7 6 6 0 11 6 10 13 -3 25 1 38 11 32 6 -4 9 3 6 17 -4 24 9
48 26 48 6 0 8 -7 5 -15 -4 -8 -1 -17 5 -21 6 -4 8 -3 4 4 -3 6 -2 13 3 16 19
12 24 -17 5 -32 -19 -14 -18 -15 1 -8 11 4 25 8 30 9 12 2 25 18 25 31 0 4 -8
6 -18 4 -20 -6 -47 17 -32 27 6 3 15 3 20 0 6 -3 10 -1 10 4 0 6 8 11 18 12 9
0 12 3 5 5 -6 3 -28 -2 -48 -10 -44 -19 -48 -19 -39 -5 5 8 1 8 -13 0 -11 -6
-24 -7 -28 -3 -4 4 -6 -3 -3 -14 3 -12 2 -28 -3 -35 -6 -10 -9 -7 -9 11 0 14
-3 75 -6 135 l-6 110 33 19 c26 16 189 74 209 76 3 0 20 -45 39 -100z m-968
60 c20 -11 24 -36 9 -60 -8 -12 -14 -12 -45 3 -35 17 -37 23 -12 55 12 15 22
15 48 2z m-94 -27 c-4 -3 -3 -11 2 -17 6 -7 4 -21 -6 -36 -9 -16 -12 -18 -8
-6 6 19 5 19 -13 3 -25 -23 -39 -22 -19 1 10 10 14 22 10 26 -5 4 1 14 11 22
20 14 35 19 23 7z m731 -8 c4 -4 -3 -4 -15 -1 -14 5 -23 3 -23 -3 0 -16 -37
-13 -43 3 -4 10 4 13 34 11 22 -1 43 -6 47 -10z m785 -1 c-3 -8 -11 -13 -19
-10 -7 3 -18 -2 -24 -9 -7 -8 -17 -12 -23 -8 -14 8 29 43 54 43 13 0 16 -5 12
-16z m7 -34 c0 -5 -6 -10 -14 -10 -8 0 -18 -5 -22 -11 -5 -9 1 -10 20 -5 34 8
34 -7 0 -23 -30 -13 -29 -14 -38 16 -5 15 -2 25 11 32 23 13 43 14 43 1z
m-1480 -32 c0 -6 9 -8 20 -5 13 3 20 0 20 -10 0 -10 -9 -14 -27 -12 -47 5 -72
33 -33 36 11 1 20 -3 20 -9z m-67 -15 c-7 -2 -13 -11 -13 -19 0 -8 6 -14 13
-14 8 0 7 -4 -3 -10 -13 -9 -13 -11 0 -20 13 -8 13 -10 -1 -10 -18 0 -31 -62
-29 -136 1 -49 -16 -98 -31 -89 -7 5 -8 34 -3 88 4 45 8 92 8 105 0 12 4 22 8
22 5 0 6 11 4 25 -3 14 -1 23 4 20 5 -3 12 6 16 20 4 14 13 25 23 24 10 0 11
-2 4 -6z m85 -50 c3 -17 -2 -23 -15 -23 -28 0 -47 16 -40 35 10 25 51 15 55
-12z m1512 -3 c0 -5 -15 -10 -33 -10 -18 0 -38 -5 -45 -12 -6 -6 -15 -9 -19
-5 -3 4 2 14 13 22 22 16 84 20 84 5z m-1520 -42 c0 -6 -11 -8 -25 -6 -14 3
-25 1 -25 -3 0 -5 9 -9 20 -9 11 0 20 -6 20 -13 0 -9 -10 -12 -30 -9 -34 5
-33 3 -21 35 8 19 15 23 35 20 14 -3 26 -10 26 -15z m1532 2 c0 -11 1 -26 2
-32 1 -7 -8 -13 -19 -13 -11 -1 -26 -4 -33 -9 -22 -14 -26 3 -6 26 19 21 19
21 -3 16 -15 -4 -23 -2 -23 7 0 12 15 17 68 24 6 0 13 -8 14 -19z m-942 -30
c-11 -7 -11 -10 -2 -10 7 0 11 -4 8 -9 -11 -17 5 -39 24 -34 49 13 91 -24 94
-84 1 -13 1 -23 1 -23 -15 0 -104 53 -108 64 -7 19 -3 20 24 6 15 -9 21 -7 25
5 8 19 -4 34 -14 18 -4 -6 -16 -11 -27 -10 -11 1 -19 -3 -17 -10 3 -19 -11
-16 -35 6 -12 11 -24 17 -27 14 -3 -4 -6 -1 -6 5 0 7 -3 11 -7 11 -19 -3 -36
2 -29 8 10 11 46 11 39 0 -3 -6 -1 -7 5 -3 20 12 13 26 -12 26 -14 0 -28 4
-31 10 -4 6 6 8 24 6 16 -2 35 1 43 5 7 5 20 9 28 9 13 0 13 -1 0 -10z m1005
-3 c9 -10 12 -44 10 -133 -4 -145 -1 -131 -23 -143 -13 -7 -19 -6 -20 2 -1 7
-3 23 -5 37 -2 15 3 30 12 37 12 9 13 12 2 13 -7 0 -11 6 -8 14 4 11 1 13 -11
9 -16 -6 -16 -5 -1 13 26 32 34 48 18 39 -12 -8 -12 -6 0 8 9 12 10 17 2 17
-7 0 -10 4 -7 9 4 5 1 11 -5 13 -8 3 -10 16 -5 41 7 39 19 46 41 24z m-1605
-37 c0 -5 -12 -11 -27 -11 -22 -1 -24 -3 -7 -6 19 -3 22 -11 20 -46 -1 -38 -4
-42 -28 -45 -16 -2 -28 1 -28 7 0 6 9 11 20 11 11 0 20 5 20 11 0 6 -9 8 -20
4 -14 -5 -20 -2 -20 10 0 12 6 14 26 9 19 -5 25 -4 20 5 -4 6 -16 11 -27 11
-14 0 -19 7 -19 25 0 22 4 25 35 25 19 0 35 -4 35 -10z m1529 -41 c17 -6 31
-15 31 -20 0 -13 -70 -42 -79 -33 -3 4 0 9 7 11 14 5 16 33 2 33 -5 0 -10 5
-10 10 0 13 10 13 49 -1z m-1540 -93 c20 -24 3 -45 -37 -43 -29 2 -37 6 -37
21 0 11 5 21 12 23 7 3 10 -4 7 -19 -3 -18 -2 -17 7 5 12 29 30 35 48 13z
m1571 -17 c0 -20 -68 -25 -93 -6 -15 10 -9 12 38 12 30 0 55 -3 55 -6z m-1650
-48 c18 -14 21 -23 14 -33 -12 -15 -12 -28 0 -47 6 -10 5 -12 -2 -7 -15 9 -11
-27 6 -46 9 -12 9 -15 -3 -15 -8 0 -11 5 -8 10 4 6 0 8 -10 4 -11 -4 -14 -2
-11 8 3 7 -1 29 -9 47 -16 36 -22 98 -10 98 5 0 19 -9 33 -19z m958 -6 c-2
-15 4 -30 17 -39 11 -9 16 -15 10 -15 -5 0 -23 11 -40 25 -16 15 -23 24 -14
21 13 -4 15 -1 12 14 -3 11 0 19 7 19 6 0 10 -10 8 -25z m662 -6 c0 -12 -29
-24 -37 -16 -3 4 -3 13 0 21 6 16 37 11 37 -5z m-1525 -44 c0 -22 -31 -33 -47
-17 -17 17 -1 44 24 40 15 -2 23 -10 23 -23z m1545 -4 c0 -11 -6 -26 -13 -33
-16 -15 -31 -49 -28 -62 1 -4 -10 -5 -24 -2 -14 4 -25 2 -25 -4 0 -5 7 -10 15
-10 8 0 15 -4 15 -10 0 -13 -16 -13 -41 0 -16 9 -17 15 -8 31 8 16 17 19 35
15 15 -4 24 -2 24 5 0 6 -9 13 -20 16 -32 8 -23 25 9 18 17 -3 32 -2 36 5 4 6
-6 13 -24 16 -17 4 -31 11 -31 17 0 5 13 7 30 4 17 -4 30 -2 30 3 0 6 5 10 10
10 6 0 10 -9 10 -19z m-1530 -30 c0 -8 -52 -31 -71 -31 -22 0 -6 18 24 28 42
13 47 14 47 3z m1565 -19 c-1 -15 -4 -32 -7 -37 -3 -6 -11 -31 -19 -57 -7 -27
-17 -48 -22 -48 -5 0 -6 -7 -3 -15 3 -9 -1 -18 -9 -21 -8 -4 -15 -11 -15 -18
0 -14 -56 -101 -90 -139 -14 -16 -25 -34 -25 -40 0 -7 -7 -12 -15 -12 -8 -1
-14 -7 -12 -15 3 -11 0 -11 -12 0 -13 10 -16 10 -16 0 0 -7 -10 -21 -22 -31
-14 -13 -17 -19 -7 -19 9 0 7 -5 -6 -13 -11 -6 -22 -12 -25 -12 -3 0 -24 -14
-47 -30 -70 -50 -121 -79 -143 -80 -25 -2 -25 6 -2 33 13 15 22 18 35 11 11
-7 17 -6 17 1 0 5 8 10 18 10 13 0 14 2 4 9 -10 6 -8 10 8 14 13 3 19 10 15
17 -3 6 -3 10 2 8 4 -1 27 4 51 12 46 15 107 73 98 96 -3 8 0 11 10 7 12 -5
19 7 15 29 0 5 5 7 12 5 6 -1 11 4 9 11 -1 8 2 11 8 7 5 -3 13 1 16 9 3 9 10
14 14 11 12 -7 40 35 40 60 1 25 24 57 35 47 5 -4 5 1 2 10 -3 10 -2 20 2 22
5 3 11 21 14 40 3 18 18 53 33 77 15 24 27 45 26 47 -5 7 -1 22 6 22 5 0 8
-13 7 -28z m-1555 -11 c0 -5 -9 -13 -20 -16 -30 -9 -24 -23 8 -17 35 6 19 -11
-25 -26 -27 -9 -33 -8 -33 4 0 7 4 14 10 14 5 0 7 7 4 15 -4 9 2 18 17 24 31
13 39 13 39 2z m-100 -51 c8 -5 11 -10 5 -10 -5 0 -3 -5 5 -10 12 -8 12 -10
-5 -10 -17 0 -18 -2 -5 -11 13 -9 13 -10 0 -6 -8 2 -14 10 -12 17 1 7 -3 18
-9 26 -13 16 -1 18 21 4z m113 -27 c-4 -9 1 -20 13 -26 18 -10 18 -11 -6 -18
-71 -20 -88 -4 -43 43 27 28 47 29 36 1z m1407 -4 c0 -5 5 -7 10 -4 19 12 23
-26 5 -43 -17 -16 -17 -16 -11 3 6 16 5 17 -5 8 -19 -19 -42 3 -28 28 10 20
29 26 29 8z m-1447 -90 c7 -1 15 -1 20 0 4 1 5 -9 2 -22 -4 -14 1 -30 14 -44
11 -11 18 -23 15 -26 -3 -2 18 -23 46 -47 27 -23 48 -46 45 -50 -6 -9 41 -61
59 -65 31 -6 44 -18 39 -33 -5 -12 -2 -14 12 -8 11 4 16 4 12 0 -4 -4 2 -13
13 -21 11 -8 20 -22 19 -31 0 -15 -1 -15 -7 -1 -4 9 -15 15 -25 13 -10 -1 -14
2 -10 9 4 7 0 8 -11 4 -11 -5 -15 -3 -10 5 5 8 1 9 -12 4 -10 -4 -15 -4 -11 0
9 9 -13 35 -24 28 -5 -3 -9 3 -9 12 0 10 -3 15 -6 11 -8 -7 -84 68 -84 83 0 6
-4 8 -10 5 -5 -3 -10 1 -10 9 0 8 -16 27 -35 42 -20 15 -33 29 -30 32 2 3 -9
29 -26 59 -19 33 -28 60 -24 71 6 14 9 13 21 -10 8 -16 20 -29 27 -29z m1431
31 c14 -5 26 -16 26 -25 0 -16 -20 -16 -32 0 -4 6 -12 11 -18 11 -20 3 -21 4
-15 14 8 12 8 12 39 0z m-1324 -50 c0 -16 -18 -30 -40 -30 -17 0 -20 34 -4 51
19 22 44 9 44 -21z m1280 -10 c0 -5 -7 -10 -15 -10 -8 0 -15 -5 -15 -10 0 -7
6 -7 19 0 29 15 41 12 41 -9 0 -22 -27 -48 -38 -36 -4 4 -1 10 6 12 6 3 12 10
12 16 0 8 -4 7 -12 -1 -28 -28 -63 3 -38 33 14 17 40 20 40 5z m-1200 -82 c0
-4 -9 -12 -21 -18 -15 -9 -24 -8 -35 1 -13 10 -12 14 2 30 15 17 15 19 1 19
-8 0 -17 -6 -20 -12 -3 -10 -7 -10 -20 1 -20 16 -13 31 13 31 14 0 18 5 14 18
-4 9 10 -1 30 -23 19 -22 35 -43 36 -47z m1158 30 c15 -15 16 -45 1 -53 -5 -4
-18 0 -28 9 -27 25 -37 19 -12 -7 19 -21 20 -25 6 -37 -13 -11 -19 -7 -17 12
1 3 -5 12 -14 18 -13 11 -11 17 13 41 32 32 35 33 51 17z m-1120 -71 c11 4 6
-6 -12 -25 -16 -17 -33 -29 -38 -26 -5 3 -1 13 9 21 10 8 13 12 8 9 -6 -2 -17
-1 -25 5 -13 7 -12 9 2 9 9 0 20 10 24 23 l8 22 4 -22 c2 -16 8 -20 20 -16z
m1052 -19 c23 -29 21 -41 -8 -44 -12 -2 -20 2 -17 7 7 11 -23 25 -32 15 -4 -3
4 -17 17 -31 13 -14 22 -25 19 -26 -46 -7 -59 -5 -75 12 -9 10 -14 22 -11 26
4 4 14 -2 21 -13 8 -10 18 -16 22 -12 4 4 1 15 -6 23 -11 13 -10 18 6 30 10 8
24 13 31 10 7 -2 10 2 6 11 -8 21 7 17 27 -8z m-956 -53 c16 -12 17 -17 5 -32
-13 -17 -13 -17 7 0 25 21 37 12 23 -17 -10 -20 -10 -20 5 -2 23 29 29 13 9
-23 -20 -34 -39 -36 -36 -2 2 18 0 20 -17 9 -27 -17 -36 -3 -16 28 21 30 15
42 -8 18 -22 -22 -51 -1 -36 26 15 29 12 35 -9 16 -11 -10 -25 -15 -30 -11
-16 9 -13 25 3 19 7 -3 16 2 20 11 6 17 9 16 80 -40z m855 -23 c12 -23 -1 -45
-24 -40 -20 3 -18 24 2 22 7 -1 10 2 7 8 -3 5 -15 6 -27 2 -19 -6 -20 -5 -8
10 18 21 38 20 50 -2z m-69 -7 c0 -9 7 -27 16 -40 9 -13 12 -29 8 -36 -4 -8
-13 0 -25 22 -20 38 -24 69 -9 69 6 0 10 -7 10 -15z m-24 -72 c-7 -17 -8 -17
-22 1 -11 16 -11 21 -2 27 18 11 32 -6 24 -28z m-566 -24 c0 -39 -13 -52 -23
-25 -4 9 -14 12 -26 9 -12 -3 -21 -3 -21 0 0 11 56 65 63 60 4 -2 7 -22 7 -44z
m518 26 c7 -14 12 -32 12 -39 0 -19 -30 -29 -46 -15 -19 15 -18 49 1 49 9 0
12 6 9 15 -10 26 12 16 24 -10z m-600 3 c-6 -29 -38 -31 -38 -2 0 8 9 14 20
14 11 0 19 -6 18 -12z m128 -13 c-3 -9 0 -15 10 -15 19 0 16 -51 -4 -58 -9 -3
-11 3 -6 24 5 19 4 25 -5 20 -6 -4 -11 -14 -11 -22 0 -8 -5 -14 -11 -14 -6 0
-8 7 -5 16 3 9 9 27 12 40 3 13 11 24 16 24 6 0 8 -7 4 -15z m324 -14 c0 -5 9
-11 21 -14 29 -8 22 -51 -8 -55 -13 -2 -23 1 -23 6 0 5 -3 24 -6 41 -4 20 -3
31 5 31 6 0 11 -4 11 -9z m97 -20 c10 -27 9 -30 -14 -34 -18 -3 -27 1 -32 17
-5 11 -6 27 -4 34 9 22 38 12 50 -17z m-149 -3 c14 2 22 -2 22 -11 0 -9 3 -22
6 -31 5 -13 -3 -15 -53 -13 -55 2 -58 3 -58 27 0 18 5 25 18 24 10 -1 17 5 17
15 1 14 2 14 13 1 7 -8 22 -14 35 -12z m-448 1 c0 -5 5 -9 11 -9 5 0 7 6 4 13
-4 6 0 4 8 -5 8 -10 22 -18 31 -18 9 0 16 -5 16 -11 0 -5 5 -7 10 -4 6 3 10 1
10 -5 0 -6 5 -8 10 -5 6 3 10 1 10 -5 0 -6 6 -10 13 -8 22 4 116 -24 128 -39
11 -12 9 -13 -12 -9 -13 3 -51 8 -84 11 -86 9 -105 15 -105 33 0 8 -3 12 -7 9
-3 -4 -12 -2 -20 4 -7 6 -13 9 -13 5 0 -3 -11 4 -25 16 -30 26 -31 33 -5 35
11 1 20 -2 20 -8z m288 -27 c2 -20 -1 -32 -9 -32 -7 0 -9 10 -7 25 3 14 1 25
-3 25 -5 0 -9 -9 -9 -20 0 -11 -4 -20 -10 -20 -5 0 -10 12 -10 27 0 29 -10 26
-14 -4 -3 -15 -16 -22 -16 -8 0 3 0 14 0 26 0 18 5 20 38 17 33 -4 37 -7 40
-36z m57 -2 c0 -29 -32 -41 -41 -16 -9 24 4 48 23 44 12 -2 18 -12 18 -28z
m329 -37 c-48 -24 -68 -15 -38 18 13 14 20 16 40 7 l24 -11 -26 -14z m409 25
c-2 -5 1 -9 6 -9 6 -1 17 -2 24 -3 8 -1 11 -16 10 -44 -1 -23 1 -41 5 -38 4 2
7 -22 7 -53 0 -47 -5 -63 -27 -89 -14 -17 -28 -29 -31 -26 -3 3 -15 0 -27 -6
-15 -8 -20 -8 -16 -1 4 6 0 11 -8 11 -9 0 -16 5 -16 10 0 6 5 10 11 10 5 0 8
4 5 9 -3 5 1 12 10 15 8 3 12 11 8 17 -4 8 -9 7 -15 -2 -4 -7 -11 -10 -15 -6
-4 3 -2 12 4 20 11 13 3 16 -50 20 -10 1 -18 7 -18 14 0 7 0 16 -1 20 0 4 5 9
13 11 9 2 8 0 -2 -7 -13 -9 -13 -11 3 -11 9 0 17 4 17 9 0 5 15 7 33 4 42 -5
95 31 76 53 -6 8 -8 14 -3 14 5 1 -3 7 -18 16 -34 18 -82 11 -110 -16 -12 -11
-24 -17 -27 -14 -3 3 1 11 10 17 16 12 19 18 19 39 0 6 3 9 6 5 3 -3 18 0 33
6 31 13 92 16 84 5z m-1281 -28 c20 -6 39 -17 42 -25 3 -8 11 -15 18 -15 9 0
9 3 -2 11 -13 9 -13 10 0 6 8 -2 15 -9 15 -16 0 -7 8 -18 17 -25 10 -7 15 -16
11 -19 -3 -4 -14 3 -24 15 -11 11 -19 19 -19 16 0 -3 -18 -2 -39 2 -61 11 -93
-19 -55 -51 14 -11 19 -10 35 10 11 13 23 19 30 15 9 -5 5 -10 -10 -16 -19 -7
-21 -11 -11 -23 15 -18 34 -20 24 -2 -6 9 -5 9 8 -1 21 -17 74 -5 85 20 8 19
9 19 33 -6 55 -55 62 -66 57 -80 -5 -12 -12 -13 -54 -1 -26 7 -61 18 -77 24
-16 6 -31 9 -34 6 -3 -2 -11 0 -18 6 -9 7 -18 4 -33 -12 -12 -13 -21 -26 -21
-31 0 -4 -5 -8 -12 -8 -6 0 -3 9 7 20 21 23 11 28 -11 6 -19 -20 -18 -33 5
-39 12 -3 19 -13 19 -23 -2 -16 -9 -19 -56 -16 -71 3 -83 13 -76 65 3 23 6 52
7 64 1 11 6 19 10 16 11 -6 -4 51 -15 58 -5 3 3 18 16 32 27 30 64 34 128 17z
m1263 -50 c4 -6 -6 -10 -22 -11 -68 -2 -104 -9 -133 -24 -22 -11 -31 -13 -28
-4 9 28 169 62 183 39z m-192 -44 c22 -22 27 -50 11 -64 -4 -4 -4 1 -1 10 5
15 4 16 -13 6 -10 -7 -16 -16 -13 -21 3 -5 -4 -6 -16 -2 -11 3 -21 2 -21 -3 0
-5 -6 -9 -13 -9 -7 0 -25 -3 -40 -7 -37 -9 -36 14 3 44 16 12 27 27 23 33 -3
5 -1 7 4 4 6 -4 18 2 28 13 22 25 19 25 48 -4z m-227 -18 c8 12 19 22 25 22
13 0 4 -45 -9 -46 -7 -1 -14 -2 -17 -3 -3 0 -7 -1 -10 -1 -10 1 -35 -28 -35
-40 0 -6 -4 -8 -10 -5 -5 3 -18 2 -28 -4 -14 -7 -21 -5 -31 11 -11 18 -10 23
16 44 15 13 32 23 36 24 5 0 5 6 1 13 -4 6 5 1 20 -12 l26 -25 16 22z m-509
-78 c16 -1 17 -1 1 -10 -20 -12 -63 2 -71 24 -6 15 -4 15 23 1 16 -8 37 -15
47 -15z m553 16 c0 -14 -29 -26 -62 -26 -10 0 -18 5 -18 10 0 6 11 10 24 10
14 0 28 5 31 10 9 15 25 12 25 -4z"/>
<path d="M1636 1553 c4 -16 7 -38 7 -49 -1 -16 4 -20 18 -17 11 3 22 9 25 14
8 14 24 11 24 -5 0 -8 8 -17 18 -21 16 -6 16 -7 -2 -21 -11 -8 -15 -14 -10
-14 6 0 18 6 28 13 18 13 17 15 -10 42 -23 23 -31 26 -45 16 -15 -9 -20 -7
-29 8 -13 26 -13 34 2 25 7 -4 8 -3 4 5 -4 6 -12 8 -18 5 -7 -5 -9 -1 -5 9 4
10 2 17 -4 17 -7 0 -8 -10 -3 -27z"/>
<path d="M651 1548 c-1 -18 -6 -28 -16 -28 -8 0 -15 -4 -15 -10 0 -15 15 -12
32 8 11 11 13 24 8 37 -8 17 -9 17 -9 -7z"/>
<path d="M590 1501 c0 -11 -4 -23 -10 -26 -18 -11 -11 -25 13 -25 17 0 19 2 7
10 -13 8 -13 9 0 14 42 13 44 14 21 15 -16 1 -21 5 -17 16 3 8 1 15 -4 15 -6
0 -10 -9 -10 -19z"/>
<path d="M1715 1433 c-35 -5 -59 -23 -29 -22 10 0 35 7 54 14 35 14 29 15 -25
8z"/>
<path d="M1650 1414 c0 -5 7 -19 16 -30 12 -15 17 -16 21 -5 5 11 7 11 14 0 6
-9 9 -10 9 -2 0 18 -23 29 -28 13 -3 -9 -9 -5 -18 11 -7 13 -13 19 -14 13z"/>
<path d="M1730 1405 c-14 -17 -5 -35 16 -35 27 0 4 -20 -24 -21 -15 0 -36 -4
-47 -9 -13 -6 -2 -7 32 -3 46 5 51 4 49 -13 -2 -11 1 -27 6 -36 6 -13 5 -18
-4 -18 -11 0 -10 -2 0 -9 10 -6 10 -10 -3 -21 -17 -14 -20 -40 -5 -40 6 0 10
9 10 21 0 12 4 17 11 13 6 -3 9 -19 7 -35 -3 -16 0 -29 5 -29 8 0 7 20 -9 183
-7 68 -19 82 -44 52z"/>
<path d="M544 1386 c-6 -26 3 -66 15 -66 4 0 5 14 3 32 -3 22 0 35 14 45 17
12 17 13 -4 13 -15 0 -24 -8 -28 -24z"/>
<path d="M1698 1323 c-24 -6 -23 -23 2 -23 13 0 20 -7 20 -20 0 -11 4 -20 10
-20 10 0 3 27 -11 46 -5 6 -6 14 -2 17 3 4 4 6 2 6 -2 -1 -12 -3 -21 -6z"/>
<path d="M533 1297 c8 -12 17 -36 21 -54 6 -26 4 -32 -13 -38 -28 -9 -26 -23
6 -57 l27 -28 -25 0 c-22 0 -21 -2 9 -17 27 -13 35 -14 45 -3 10 10 8 12 -5 7
-38 -13 -15 13 37 45 42 25 54 37 52 53 -8 41 -19 56 -38 50 -11 -4 -19 -2
-19 5 0 6 -4 8 -10 5 -5 -3 -10 -1 -10 6 0 7 -3 9 -7 5 -5 -4 0 -13 10 -21 16
-11 16 -13 1 -19 -11 -4 -18 1 -22 16 -5 20 -6 20 -12 3 -5 -15 -8 -16 -12 -4
-3 8 1 24 9 34 13 19 15 19 44 2 31 -17 59 -23 45 -9 -4 4 -12 8 -17 8 -5 1
-12 2 -16 3 -4 0 2 8 13 16 17 13 16 14 -21 8 -22 -3 -45 -12 -52 -20 -10 -13
-13 -12 -25 6 -7 12 -17 21 -22 21 -4 0 -2 -10 7 -23z m137 -98 c0 -4 -21 -22
-46 -40 l-46 -32 -24 29 c-20 26 -21 30 -7 41 22 17 45 -5 31 -30 -5 -10 -7
-21 -5 -24 3 -3 13 10 22 27 9 18 12 29 6 26 -7 -4 -11 1 -11 14 0 12 4 19 8
16 4 -2 14 -1 22 4 14 9 50 -13 50 -31z"/>
<path d="M1682 1272 c2 -11 -3 -26 -11 -35 -8 -10 -9 -17 -3 -17 6 0 14 5 17
10 10 17 25 11 25 -9 0 -11 -6 -22 -12 -24 -8 -3 -6 -6 5 -6 12 -1 17 7 17 29
0 17 -4 30 -10 30 -5 0 -10 9 -10 20 0 11 -5 20 -11 20 -5 0 -9 -8 -7 -18z"/>
<path d="M1624 1192 c3 -6 23 -13 43 -16 21 -4 51 -9 67 -12 16 -4 26 -2 23 3
-3 5 -20 10 -38 11 -18 2 -36 6 -39 10 -8 11 -63 14 -56 4z"/>
<path d="M1600 1164 c0 -2 9 -8 20 -14 27 -14 111 -29 104 -19 -3 5 4 9 15 9
21 0 27 -20 23 -75 -2 -16 0 -17 8 -5 14 22 12 66 -4 79 -9 8 -28 10 -50 5
-20 -3 -42 -2 -49 4 -12 9 -67 23 -67 16z"/>
<path d="M643 1093 c-27 -27 -37 -38 -23 -25 14 12 30 22 34 22 6 0 -17 -38
-41 -69 -2 -2 -14 2 -28 9 -29 15 -33 40 -7 41 13 0 14 2 2 6 -8 3 -18 11 -22
17 -4 6 -10 7 -15 3 -4 -5 -1 -12 6 -16 9 -6 10 -11 2 -15 -19 -12 -12 -25 19
-41 27 -14 30 -20 25 -48 -8 -42 17 -67 75 -74 l41 -6 -25 -26 c-41 -43 -34
-58 31 -66 32 -4 62 -13 68 -21 5 -7 25 -17 43 -20 29 -6 32 -4 31 17 0 22 -1
23 -9 4 -5 -11 -9 -14 -9 -7 -1 7 -6 10 -12 7 -5 -4 -19 1 -30 10 -10 10 -41
20 -69 23 -28 2 -53 8 -55 12 -7 11 66 99 82 99 6 1 9 -7 6 -17 -6 -23 20 -44
82 -67 28 -10 55 -22 62 -27 6 -5 14 -5 16 0 7 10 -62 87 -70 78 -4 -3 2 -13
13 -20 35 -26 6 -29 -43 -5 -38 19 -48 29 -46 47 2 14 -3 22 -12 22 -8 0 -15
5 -15 11 0 5 -4 7 -10 4 -5 -3 -10 -15 -10 -26 0 -22 -24 -25 -83 -8 -37 10
-37 10 -30 52 3 23 17 56 30 74 14 18 22 36 19 41 -3 6 6 18 21 27 25 17 26
17 19 0 -5 -15 -4 -16 9 -5 13 11 13 15 3 21 -20 13 -24 12 -75 -38z"/>
<path d="M1570 1130 c0 -5 5 -12 10 -15 6 -3 10 -2 10 3 0 5 23 3 52 -4 29 -8
60 -14 70 -14 10 0 18 -6 18 -13 0 -8 -7 -14 -15 -14 -8 0 -12 4 -9 9 3 4 1 8
-4 8 -11 0 -22 -24 -22 -47 0 -13 3 -13 15 -3 9 8 15 9 15 2 0 -17 -17 -23
-44 -16 -21 5 -23 9 -16 34 6 22 5 30 -7 34 -8 3 -19 4 -24 0 -14 -8 -11 -24
6 -24 8 0 15 -7 15 -16 0 -11 -5 -14 -16 -10 -9 3 -22 6 -30 6 -10 0 -13 7 -8
25 5 21 3 25 -14 25 -27 0 -37 -17 -22 -35 7 -8 10 -26 8 -40 -4 -18 -1 -25
10 -25 9 0 13 7 9 20 -6 25 10 25 78 1 44 -16 47 -19 27 -25 -19 -6 -21 -10
-11 -22 7 -8 20 -12 31 -8 17 5 19 2 13 -33 -5 -28 -4 -34 4 -23 6 8 11 27 11
43 0 17 5 27 15 27 18 0 21 55 4 66 -8 4 -9 -4 -4 -27 4 -25 3 -30 -4 -19 -9
13 -11 12 -11 -3 0 -10 -4 -15 -10 -12 -13 8 0 68 17 78 22 13 15 36 -14 43
-16 3 -44 10 -63 15 -64 15 -90 18 -90 9z"/>
<path d="M730 1094 c0 -8 -4 -13 -9 -10 -10 7 -23 -19 -14 -28 10 -10 33 -7
33 4 0 5 -8 7 -17 4 -17 -5 -17 -5 -1 6 13 8 23 8 37 0 11 -5 23 -10 28 -10 4
1 -5 8 -20 16 -15 8 -25 19 -22 24 4 6 1 10 -4 10 -6 0 -11 -7 -11 -16z"/>
<path d="M730 1015 c-30 -31 -36 -34 -46 -20 -16 21 -27 19 -15 -3 7 -14 6
-25 -5 -40 -8 -12 -11 -22 -5 -22 5 0 13 5 16 11 5 6 12 4 21 -8 13 -16 14
-16 8 9 -5 23 0 34 30 63 32 31 42 45 33 45 -2 0 -19 -16 -37 -35z"/>
<path d="M1490 1019 c-7 -11 -9 -27 -6 -34 2 -7 -1 -16 -9 -18 -7 -3 -15 3
-18 14 -3 10 -11 19 -19 19 -10 0 -11 -2 0 -9 7 -4 12 -14 10 -22 -2 -10 5
-13 24 -11 23 2 27 -1 22 -15 -5 -17 -5 -17 6 0 8 13 9 22 1 31 -8 9 -8 22 -1
40 11 31 5 34 -10 5z"/>
<path d="M1520 975 c6 -17 6 -25 -1 -25 -6 0 -7 -4 -4 -10 10 -16 22 -12 27 8
3 10 0 26 -7 35 -18 25 -26 21 -15 -8z"/>
<path d="M901 971 c-1 -8 -9 -19 -18 -26 -16 -12 -16 -14 1 -30 9 -10 20 -14
24 -11 3 4 0 11 -8 16 -11 7 -11 11 -1 24 7 8 11 21 8 28 -4 10 -6 10 -6 -1z"/>
<path d="M1629 970 c-1 -8 -1 -18 0 -22 0 -5 -3 -8 -7 -8 -5 0 -14 -11 -20
-25 -17 -37 -35 -32 -27 8 l6 32 -26 -30 c-13 -16 -25 -37 -24 -45 0 -12 2
-12 6 -1 5 11 7 11 14 0 5 -9 9 -10 9 -2 0 6 8 9 18 6 25 -6 81 72 64 89 -9 9
-12 9 -13 -2z"/>
<path d="M1357 949 c-11 -14 -21 -19 -33 -15 -14 6 -15 4 -4 -9 12 -15 16 -14
39 9 14 14 22 28 19 31 -3 4 -13 -4 -21 -16z"/>
<path d="M1410 963 c0 -10 102 -110 154 -150 25 -20 27 -25 15 -40 -8 -10 -18
-21 -23 -24 -4 -4 -3 -10 3 -13 6 -4 16 4 22 18 7 14 16 23 20 20 5 -3 9 -2 9
3 0 4 -42 47 -93 95 -50 47 -95 90 -99 94 -5 4 -8 3 -8 -3z"/>
<path d="M1678 928 c-5 -46 -17 -67 -48 -83 -23 -12 -30 -12 -51 1 l-24 16 24
-21 c28 -25 39 -26 69 -5 16 11 22 12 22 3 0 -7 7 -4 15 7 20 26 19 43 -1 18
-15 -19 -16 -19 -9 1 4 11 8 27 9 35 1 9 5 21 10 28 4 6 2 12 -3 12 -6 0 -12
-6 -13 -12z"/>
<path d="M1002 913 c-16 -30 -54 -173 -49 -186 2 -7 10 8 16 33 7 25 20 72 31
105 19 60 20 82 2 48z"/>
<path d="M1281 921 c-8 -5 -10 -14 -6 -21 5 -9 4 -11 -4 -6 -8 6 -8 1 1 -18
12 -29 38 -35 38 -10 0 10 -6 14 -15 10 -21 -8 -19 11 3 23 11 7 14 13 7 20
-6 6 -16 7 -24 2z"/>
<path d="M1059 915 c-1 -5 -1 -13 0 -17 0 -5 -5 -8 -13 -8 -8 0 -18 -4 -21
-10 -3 -5 0 -7 9 -4 8 3 24 0 36 -6 17 -9 19 -14 9 -26 -10 -13 -14 -12 -30 2
-12 11 -19 13 -19 5 0 -7 11 -22 25 -35 25 -23 24 -46 -2 -25 -9 9 -13 8 -13
0 0 -18 31 -26 40 -10 5 7 5 20 0 29 -6 10 -3 21 8 33 10 11 12 21 6 25 -5 4
-15 18 -21 32 -6 14 -12 21 -14 15z"/>
<path d="M1356 898 c-9 -12 -16 -28 -16 -36 0 -7 -4 -10 -10 -7 -5 3 -10 2
-10 -4 0 -5 5 -11 12 -13 6 -2 8 -10 4 -17 -5 -7 -14 -10 -22 -7 -8 3 -14 0
-14 -6 0 -7 -5 -6 -15 2 -12 10 -16 9 -21 -3 -7 -20 4 -39 18 -31 7 4 8 2 4
-4 -12 -20 -34 -13 -39 11 -4 21 -4 21 -6 1 -2 -30 24 -50 44 -34 8 7 15 18
15 25 0 16 35 26 48 13 13 -13 33 -1 27 15 -3 7 13 22 35 35 42 24 50 19 25
-14 -16 -21 -20 -48 -6 -40 5 4 12 0 14 -6 3 -8 6 -6 6 5 1 9 -4 17 -9 17 -6
0 -5 8 2 20 7 11 19 20 27 20 11 0 11 -3 0 -17 -13 -16 -12 -17 4 -4 9 7 17
20 17 28 0 8 -8 13 -17 11 -12 -2 -17 3 -15 13 4 27 -29 32 -60 9 -45 -33 -62
-24 -32 18 8 12 13 22 10 22 -3 0 -12 -10 -20 -22z m69 -34 c-11 -9 -32 -22
-47 -30 -22 -12 -27 -12 -32 1 -3 9 0 12 8 9 7 -3 24 4 37 15 13 11 31 20 39
20 11 0 10 -4 -5 -15z"/>
<path d="M730 883 c0 -14 36 -54 42 -47 2 2 29 -6 59 -17 30 -11 50 -16 44
-11 -5 5 -32 17 -60 27 -27 10 -57 28 -67 39 -10 12 -17 15 -18 9z"/>
<path d="M1112 793 c-2 -80 -3 -83 -26 -83 -26 0 -42 -15 -47 -44 -3 -12 -16
-23 -37 -28 -43 -12 -40 -23 10 -36 50 -13 58 -9 58 26 0 20 -3 23 -9 12 -6
-8 -7 -18 -5 -22 6 -10 -13 -10 -46 -1 -25 7 -25 7 5 13 23 4 31 11 33 32 2
16 11 28 23 31 16 4 19 2 14 -16 l-6 -22 13 22 c12 19 15 20 32 8 13 -10 24
-11 37 -4 25 13 24 27 -2 55 l-21 23 33 20 c26 16 36 18 48 8 14 -10 14 -10 4
4 -11 13 -9 18 12 27 14 6 25 16 25 22 0 7 -9 5 -22 -4 -36 -26 -46 -18 -13
10 l30 26 -40 -23 c-76 -43 -87 -52 -75 -59 9 -5 9 -9 1 -14 -18 -11 -13 -40
9 -54 27 -16 25 -34 -2 -30 -21 3 -23 9 -29 93 l-5 90 -2 -82z"/>
<path d="M1503 804 c-17 -7 -34 -18 -38 -24 -9 -14 8 -13 23 2 16 16 15 -3 -2
-25 -14 -18 -16 -18 -48 -1 -29 15 -31 15 -20 1 8 -9 22 -19 33 -22 23 -8 25
-28 3 -46 -13 -10 -17 -10 -25 2 -5 8 -9 10 -9 4 0 -5 5 -17 10 -25 9 -13 15
-10 37 15 15 17 31 29 36 27 5 -1 18 0 28 3 28 9 12 26 -17 19 -31 -8 -31 7 2
46 15 17 25 32 23 34 -2 2 -18 -3 -36 -10z"/>
<path d="M714 778 c-8 -13 34 -48 56 -47 8 0 0 8 -17 16 -18 9 -33 20 -33 25
0 5 9 4 21 -2 11 -6 25 -10 30 -8 5 2 -4 8 -21 15 -21 8 -32 8 -36 1z"/>
<path d="M1188 763 c-11 -15 -10 -16 12 -10 24 6 24 5 6 -8 -11 -8 -15 -15
-10 -15 11 0 34 21 34 31 0 15 -29 17 -42 2z"/>
<path d="M830 741 c-21 -4 -35 -12 -35 -20 0 -16 93 -66 141 -76 16 -3 -3 9
-42 28 -83 40 -95 53 -54 59 18 3 30 0 30 -6 0 -15 38 -38 50 -31 6 4 10 13
10 21 0 11 -7 13 -27 8 -22 -6 -25 -4 -20 10 7 17 5 17 -53 7z"/>
<path d="M1025 740 l-50 -7 45 -1 c25 -1 52 3 60 8 8 5 11 9 5 8 -5 -1 -32 -4
-60 -8z"/>
<path d="M1321 719 c5 -10 7 -19 3 -19 -3 0 -1 -7 6 -15 10 -12 10 -18 -1 -31
-10 -13 -10 -17 1 -24 15 -9 16 -9 -30 -23 -13 -4 -12 -6 2 -12 13 -5 27 3 50
28 18 18 40 36 48 39 12 4 13 10 4 24 -6 10 -16 20 -24 22 -7 3 -10 0 -6 -6 3
-6 0 -13 -6 -16 -7 -3 -3 -3 10 0 31 8 27 -8 -7 -29 -36 -21 -47 -22 -31 -2
10 12 10 18 0 30 -9 10 -9 15 -1 15 19 0 12 27 -9 33 -17 4 -18 2 -9 -14z"/>
<path d="M1262 718 c-7 -7 -12 -20 -12 -30 0 -15 5 -17 28 -12 26 6 26 6 9
-12 -21 -23 -48 -10 -58 27 l-7 24 -1 -25 c-1 -15 4 -31 11 -38 18 -18 59 -15
73 5 19 25 8 44 -21 37 -30 -8 -31 9 -1 24 14 7 17 11 7 11 -9 1 -21 -4 -28
-11z"/>
<path d="M1022 693 c-6 -15 -11 -23 -11 -16 -1 7 -8 10 -18 6 -12 -5 -14 -3
-8 7 5 9 4 11 -4 6 -6 -4 -18 -2 -26 4 -9 8 -15 8 -15 2 0 -9 60 -52 73 -52 7
0 28 62 23 67 -2 2 -9 -8 -14 -24z"/>
<path d="M1168 673 c-22 -9 -38 -22 -38 -32 1 -14 2 -14 14 2 7 9 17 17 23 17
5 0 18 7 29 15 23 18 19 17 -28 -2z"/>
<path d="M1099 645 c-4 -68 2 -85 26 -65 12 10 15 10 15 -1 0 -11 2 -11 10 1
8 13 11 13 19 1 13 -21 91 3 91 28 0 4 -13 15 -30 24 -16 10 -30 14 -30 8 0
-6 10 -15 22 -22 18 -10 19 -13 5 -20 -20 -12 -88 -7 -84 6 2 6 13 11 25 13
12 2 22 8 22 13 0 17 -27 9 -50 -16 -26 -28 -49 -20 -32 12 7 12 7 25 1 34 -6
10 -9 6 -10 -16z"/>
<path d="M912 1491 c-7 -21 -12 -41 -12 -45 0 -13 24 -5 53 20 20 17 39 24 54
21 13 -2 26 0 29 4 9 16 -53 14 -73 -2 -6 -6 -13 -6 -15 -2 -3 4 -3 2 -2 -4 2
-7 2 -13 0 -13 -3 0 -11 -3 -20 -6 -14 -5 -14 -2 -5 26 6 17 9 33 7 36 -3 2
-10 -13 -16 -35z"/>
<path d="M1087 1478 c-4 -12 -7 -33 -7 -45 0 -14 -6 -23 -15 -23 -8 0 -15 9
-15 19 0 25 -18 37 -33 22 -16 -16 2 -42 37 -54 33 -11 37 -8 46 42 8 44 -3
77 -13 39z"/>
<path d="M980 1458 c0 -6 -3 -9 -6 -5 -3 3 -15 -3 -27 -13 -11 -11 -17 -23
-13 -27 4 -5 14 0 21 10 13 18 14 17 17 -5 2 -16 10 -24 28 -25 l25 -3 -23 12
c-19 9 -23 17 -18 40 3 15 3 28 1 28 -3 0 -5 -5 -5 -12z"/>
<path d="M864 1421 c3 -5 19 -14 36 -21 17 -7 27 -16 21 -19 -6 -4 5 -7 24 -7
19 0 33 1 32 2 -15 10 -116 51 -113 45z"/>
<path d="M1034 1137 c1 -15 7 -23 18 -22 23 2 36 15 15 15 -9 0 -17 7 -17 15
0 8 -4 15 -9 15 -5 0 -8 -10 -7 -23z"/>
<path d="M1340 1591 c0 -5 -9 -7 -20 -4 -22 6 -162 -57 -142 -64 6 -3 10 -9 6
-14 -3 -5 0 -9 5 -9 6 0 11 8 11 18 0 18 40 41 100 58 25 7 25 6 7 -14 -12
-13 -15 -22 -8 -27 10 -6 15 1 12 18 -1 4 10 13 24 19 25 11 34 28 15 28 -5 0
-10 -4 -10 -9z"/>
<path d="M1362 1550 c0 -14 8 -47 19 -75 15 -40 18 -43 13 -15 -4 19 -12 53
-19 75 -10 30 -13 34 -13 15z"/>
<path d="M1334 1544 c3 -10 12 -39 20 -63 9 -24 14 -46 12 -49 -9 -8 -27 10
-23 22 11 27 -7 34 -45 19 -21 -8 -38 -19 -38 -24 0 -4 7 -6 15 -3 8 3 31 -4
50 -16 53 -33 64 -17 40 57 -19 58 -38 94 -31 57z"/>
<path d="M1401 1544 c-1 -6 6 -31 14 -55 9 -24 14 -53 11 -63 -4 -14 -2 -16 7
-7 8 8 6 27 -10 73 -12 35 -22 58 -22 52z"/>
<path d="M1215 1508 c3 -16 0 -28 -7 -30 -9 -3 -9 -12 0 -39 6 -19 11 -25 10
-14 0 11 1 29 1 40 2 18 3 17 12 -4 5 -14 8 -30 5 -36 -2 -6 1 -12 7 -12 7 0
19 -4 27 -7 9 -4 24 0 35 9 19 14 18 14 -12 9 -29 -6 -34 -3 -43 21 -7 20 -7
31 1 41 8 10 8 14 0 14 -6 0 -11 -6 -11 -12 -1 -7 -7 1 -16 17 -14 29 -14 29
-9 3z"/>
<path d="M1313 1390 c-12 -10 -33 -22 -47 -26 -15 -3 -28 -10 -31 -14 -3 -4
23 1 58 11 74 23 92 31 53 23 -26 -5 -28 -3 -17 10 19 22 9 20 -16 -4z"/>
<path d="M1391 1401 c-11 -7 -11 -9 0 -13 8 -3 -6 -12 -31 -21 -25 -10 -35
-15 -22 -13 15 3 22 -1 23 -12 0 -12 3 -10 9 6 5 12 13 22 18 22 4 0 17 7 28
15 18 15 18 15 0 8 -13 -4 -17 -3 -12 5 9 14 6 15 -13 3z"/>
<path d="M1191 1383 c-1 -28 13 -37 29 -18 7 8 21 15 31 15 11 0 19 5 19 10 0
16 -36 12 -51 -6 -12 -14 -14 -14 -20 3 -7 16 -8 16 -8 -4z"/>
<path d="M416 1572 c-3 -5 6 -14 20 -21 22 -10 25 -9 22 6 -4 19 -33 30 -42
15z"/>
<path d="M1141 271 c-7 -5 -11 -13 -8 -18 3 -5 -7 -31 -21 -58 -31 -58 -81
-88 -150 -91 -63 -3 -75 -10 -62 -33 15 -29 72 -37 124 -17 50 19 81 49 90 89
3 15 11 27 17 27 18 0 1 -51 -30 -90 -16 -19 -31 -45 -35 -58 -6 -18 -4 -22
13 -22 21 0 46 32 34 44 -3 3 -2 6 4 6 21 0 50 63 42 93 -10 36 -1 35 12 -3 6
-16 14 -28 18 -26 4 3 8 -5 8 -16 1 -11 10 -29 19 -39 9 -11 14 -22 11 -26 -4
-3 -7 0 -7 7 0 9 -6 8 -20 -5 -11 -10 -20 -21 -20 -24 0 -3 29 -7 65 -8 36 -1
65 2 65 7 0 5 -18 27 -39 48 -33 33 -69 108 -57 119 2 2 15 -16 30 -41 34 -59
80 -86 144 -86 32 0 56 6 66 15 16 17 11 45 -8 45 -147 6 -176 17 -205 76 -8
16 -21 34 -30 41 -9 6 -13 15 -9 19 11 10 -11 34 -31 34 -9 0 -22 -4 -30 -9z"/>
</g>
</svg>
